/* XPM */
static char *image_xpm[] = {
/* width height ncolors chars_per_pixel */
"16 16 26 1",
"  c #cc0033",
". c #cc0000",
"+ c #990033",
"@ c #3366cc",
"# c #cc3366",
"$ c #99ccff",
"% c #333399",
"& c #6666cc",
"* c #cc6666",
"= c #ffffff",
"- c #6699cc",
"; c #993366",
"> c #9999ff",
", c #ff9999",
"' c #cc99cc",
") c #99cccc",
"! c #3333cc",
"~ c #cc3333",
"{ c #cccccc",
"] c #ff6666",
"^ c #6666ff",
"/ c #ccccff",
"( c #ffcccc",
"_ c #9999cc",
": c #cc9999",
"< c #ff3333",
"=====>&@!-_=====",
"===/&/===//_>===",
"==_>:]*(===={>==",
"=_=*<~< (====_/=",
"/>:<.<.< &&/==@=",
"${, <.<~<%&!/==_",
"&=:<.~.<.!!@!=/&",
"===~<~< #!&!&>=!",
"!=='+<.;!@!@!>=@",
"&==_&!&!&!&!&_=&",
"_/=/!!!@!!!@!/)$",
"=@==>!&!&!&!^=^=",
"=/_=/&!@!@!&{/_=",
"==//=/>&@!>/>_==",
"===/@//={=)&{===",
"=====>^!^&/=====",
};