/* XPM */
static char *image_xpm[] = {
/* width height ncolors chars_per_pixel */
"32 32 32 1",
"  c #cc0000",
". c #cc0033",
"+ c #3366cc",
"@ c #6633cc",
"# c #99ccff",
"$ c #ff99cc",
"% c #333399",
"& c #6666cc",
"* c #cc6666",
"= c #ffffff",
"- c #6699cc",
"; c #cc6699",
"> c #993366",
", c #663399",
"' c #9999ff",
") c #ff9999",
"! c #993399",
"~ c #99cccc",
"{ c #3333cc",
"] c #cc3333",
"^ c #663366",
"/ c #ccffff",
"( c #6699ff",
"_ c #cccccc",
": c #6666ff",
"< c #ff6666",
"[ c #ccccff",
"} c #ffcccc",
"| c #ff3366",
"1 c #9999cc",
"2 c #cc9999",
"3 c #ff3333",
"============1'{+{&&'[===========",
"=========1:-[[=====['+[=========",
"=======[{[==_=======_=1&_=======",
"======'1================#1======",
"====['[==}*<*}}==========={=====",
"====&[=$3 3.3 3)===========1====",
"==='_=23 ] 3 ] 3*=======_===&===",
"==/1=}3.3]3.3]3.3;[[========'[==",
"=={==< 3 3 3 3 3 ]{+{'[======&==",
"=~[== 3.3.3]3 3.3.&{&{&[=====_[=",
"=&==2] 3 3 3 ] 3 3^+{{{+1===_={=",
"=1==}]3.3]3.3]3.3]!{&{&{&[===='[",
"1[==}3 3 3 3 3 3 3^{{+{+{&_===_'",
"&[===]3]3 3.3 3]3 &{&{&{+{'====&",
"{====) 3 ] 3 ] 3 >{+{{{+{{{====&",
":=====<.3]3.3]3.|@&{&{&{&{&[==={",
"{=====_] 3 3 3 ],+{+{+{{{+{'===[",
"&======{!.3]3.!{&{&{&{&{&{&1===&",
"&===_=_+{{%@%{{+{{{+{{{+{{{'_=[-",
"#[====={&{&{&{&{&{&{&{&{&{&1==[1",
"['=====&{+{{{+{+{+{{{+{+{+{[==1[",
"=+=====-+{&{&{&{+{&{&{&{+{&===&=",
"=1_====[{{{+{{{+{{{+{{{+{{&==[1=",
"==&====='{&{&{&{&{&{&{&{&+===&==",
"==1[====[&{+{+{{{+{+{+{{{[==1[==",
"===&=====[:{&{&{&{&{&{&{[==['===",
"====&[====[-{{{+{{{+{{{[==_'====",
"=====1/=====[&&{&{&{:1===['[====",
"======1[======_[1[1[====1'======",
"=======[(1============/&[=======",
"========_[{'_===_=_[&&1=========",
"===========[[&&{&&'1============",
};