/* XPM */
static char *image_xpm[] = {
/* width height ncolors chars_per_pixel */
"128 128 36 1",
"  c #cc0000",
". c #cc0033",
"+ c #990033",
"@ c #3366cc",
"# c #cc3366",
"$ c #6633cc",
"% c #99ccff",
"& c #ff99cc",
"* c #333399",
"= c #6666cc",
"- c #cc6666",
"; c #ffffff",
"> c #6699cc",
", c #cc6699",
"' c #993366",
") c #663399",
"! c #9999ff",
"~ c #ff9999",
"{ c #993399",
"] c #99cccc",
"^ c #3333cc",
"/ c #cc3333",
"( c #663366",
"_ c #ccffff",
": c #6699ff",
"< c #ff6699",
"[ c #cccccc",
"} c #6666ff",
"| c #ff6666",
"1 c #ccccff",
"2 c #ffcccc",
"3 c #ff3366",
"4 c #9999cc",
"5 c #cc9999",
"6 c #ff3333",
"7 c #996699",
";;;;;;;;;;;;;;;;;;;;;;;;;;;;;;;;;;;;;;;;;;;;;;;;;;;;;;]%4!==^=^@^=^====!41[;;;;;;;;;;;;;;;;;;;;;;;;;;;;;;;;;;;;;;;;;;;;;;;;;;;;;",
";;;;;;;;;;;;;;;;;;;;;;;;;;;;;;;;;;;;;;;;;;;;;;;;;[!==^=^=^=^=^=@=^=^=^=^=^=@:41;;;;;;;;;;;;;;;;;;;;;;;;;;;;;;;;;;;;;;;;;;;;;;;;;",
";;;;;;;;;;;;;;;;;;;;;;;;;;;;;;;;;;;;;;;;;;;;[14=^^^@^==!41[;[;;;;;;;[1[144==^^^@@![;;;;;;;;;;;;;;;;;;;;;;;;;;;;;;;;;;;;;;;;;;;;;",
";;;;;;;;;;;;;;;;;;;;;;;;;;;;;;;;;;;;;;;;;;1>}^=^}411;;;;;;;;;;;;;;;;;;;;;;;;;%!==^=^!1;;;;;;;;;;;;;;;;;;;;;;;;;;;;;;;;;;;;;;;;;;",
";;;;;;;;;;;;;;;;;;;;;;;;;;;;;;;;;;;;;;;;4=^^^!4;;;;;;;;;;;;;;;;;;;;;;;;;;;;;;;;;11=@^@^!1;;;;;;;;;;;;;;;;;;;;;;;;;;;;;;;;;;;;;;;",
";;;;;;;;;;;;;;;;;;;;;;;;;;;;;;;;;;;;;1!^@^!4;;;;;;;;;;;;;;;;;;;;;;;;;;;;;;;;;;;;;;;;1==^==1;;;;;;;;;;;;;;;;;;;;;;;;;;;;;;;;;;;;;",
";;;;;;;;;;;;;;;;;;;;;;;;;;;;;;;;;;;1=^^=4_;;;;;;[;;;;;;;[;;;;;;;[;;;;;;;[;;;;;;;[;;;;;1!^^^=4;;;;;;;;;;;;;;;;;;;;;;;;;;;;;;;;;;;",
";;;;;;;;;;;;;;;;;;;;;;;;;;;;;;;;;1:^==1;;;;;;;;;;;;;;;;;;;;;;;;;;;;;;;;;;;;;;;;;;;;;;;;;;1}^==1;;;;;;;;;;;;;;;;;;;;;;;;;;;;;;;;;",
";;;;;;;;;;;;;;;;;;;;;;;;;;;;;;;;=@^=4;;;;;;;;;;;;;;;;;;;;;;;;;;;;;;;;;;;;;;;;;;;;;;;;;;;;;;1=@^>1;;;;;;;;;;;;;;;;;;;;;;;;;;;;;;;",
";;;;;;;;;;;;;;;;;;;;;;;;;;;;;;%^=@1;;;;;;;;;;;;;;;;;;;;;;;;;;;;;;;;;;;;;;;;;;;;;;;;;;;;;;;;;;4}^=4;;;;;;;;;;;;;;;;;;;;;;;;;;;;;;",
";;;;;;;;;;;;;;;;;;;;;;;;;;;;[=^=4;;;[;;;;;;;[;;;;;;;[;;;;;;;[;;;;;;;[;;;;;;;[;;;;;;;[;;;;;;;[;;!^^@1;;;;;;;;;;;;;;;;;;;;;;;;;;;;",
";;;;;;;;;;;;;;;;;;;;;;;;;;;4}^!1;;;;;;;;;;;;;;;;;;;;;;;;;;;;;;;;;;;;;;;;;;;;;;;;;;;;;;;;;;;;;;;;;==^%;;;;;;;;;;;;;;;;;;;;;;;;;;;",
";;;;;;;;;;;;;;;;;;;;;;;;;;@^^1;;;;;;;;;;;;;;;;;;;;;;;;;;;;;;;;;;;;;;;;;;;;;;;;;;;;;;;;;;;;;;;;;;;;4=^=[;;;;;;;;;;;;;;;;;;;;;;;;;",
";;;;;;;;;;;;;;;;;;;;;;;;1^==;;;;;;;;;;;;;;;;;;;;;;;;;;;;;;;;;;;;;;;;;;;;;;;;;;;;;;;;;;;;;;;;;;;;;;;1:^=1;;;;;;;;;;;;;;;;;;;;;;;;",
";;;;;;;;;;;;;;;;;;;;;;;!^^4;;;;;[;;;;;;;[;;;;;;;[;;;;;;;[;;;;;;;[;;;;;;;[;;;;;;;[;;;;;;;[;;;;;;;[;;;1!^@>;;;;;;;;;;;;;;;;;;;;;;;",
";;;;;;;;;;;;;;;;;;;;;;!^}1;;;;;;;;;;;;;;;;;;;;;;;;;;;;;;;;;;;;;;;;;;;;;;;;;;;;;;;;;;;;;;;;;;;;;;;;;;;;1^=>;;;;;;;;;;;;;;;;;;;;;;",
";;;;;;;;;;;;;;;;;;;;1=^=1;;;;;;;;;;;;;;;;;22&2522;;;;;;;;;;;;;;;;;;;;;;;;;;;;;;;;;;;;;;;;;;;;;;;;;;;;;;1@@=;;;;;;;;;;;;;;;;;;;;;",
";;;;;;;;;;;;;;;;;;;;=^:;;;;;;;;;;;;;;22||/6/6 6.6.6|~2;;;;;;;;;;;;;;;;;;;;;;;;;;;;;;;;;;;;;;;;;;;;;;;;;;;===;;;;;;;;;;;;;;;;;;;;",
";;;;;;;;;;;;;;;;;;1=^=1;;;;;[;;;;;;2// 6 6 6 / 6 6 6 //<[;;;[;;;;;;;[;;;;;;;[;;;;;;;[;;;;;;;[;;;;;;;[;;;;;=@^;;;;;;;;;;;;;;;;;;;",
";;;;;;;;;;;;;;;;;;=^!;;;;;;;;;;;;~6.6/6.6/6.6/6.6/6.6/6.632;;;;;;;;;;;;;;;;;;;;;;;;;;;;;;;;;;;;;;;;;;;;;;;;===;;;;;;;;;;;;;;;;;;",
";;;;;;;;;;;;;;;;1=^>;;;;;;;;;;;~/6 6 6 6 6 6 6 6 6 6 6 6 6 |2;;;;;;;;;;;;;;;;;;;;;;;;;;;;;;;;;;;;;;;;;;;;;;;=@@;;;;;;;;;;;;;;;;;",
";;;;;;;;;;;;;;;;=^!;;;;;;;;;;2|/6 6.6 6/6 6.6 6/6 6.6 6/6 6.6-;;;;;;;;;;;;;;;;;;;;;;;;;;;;;;;;;;;;;;;;;;;;;;;===;;;;;;;;;;;;;;;;",
";;;;;;;;;;;;;;;4^=1;;;;;[;;;56 6 / 6 / 6 / 6 / 6 / 6 / 6 / 6 //2[;;;;;;;[;;;;;;;[;;;;;;;[;;;;;;;[;;;;;;;[;;;;;=@=;;;;;;;;;;;;;;;",
";;;;;;;;;;;;;;!^};;;;;;;;;;~6/6.6/6.6/6.6/6.6/6.6/6.6/6.6/6.6/6/2;;;;;;;;;;;;;;;;;;;;;;;;;;;;;;;;;;;;;;;;;;;;;;==4;;;;;;;;;;;;;;",
";;;;;;;;;;;;;1^=1;;;;;;;;;-6 6 6 6 6 6 6 6 6 6 6 6 6 6 6 6 6 6 6.2;;;;;;;;;;;;;;;;;;;;;;;;;;;;;;;;;;;;;;;;;;;;;_^=4;;;;;;;;;;;;;",
";;;;;;;;;;;;;^=1;;;;;;;;;-6/6 6.6.6/6 6.6.6/6 6.6.6/6 6.6.6/6 6.6.2;;;;;;;;;;;;;;;;;;;;;;;;;;;;;;;;;;;;;;;;;;;;;1^=1;;;;;;;;;;;;",
";;;;;;;;;;;;@^4;;;;;[;;;-6 6 / 6 6 6 / 6 6 6 / 6 6 6 / 6 6 6 / 6 6.2[;;;;;;;[;;;;;;;[;;;;;;;[;;;;;;;[;;;;;;;[;;;;!^=[;;;;;;;;;;;",
";;;;;;;;;;;4==;;;;;;;;;~6/6.6/6.6/6.6/6.6/6.6/6.6/6.6/6.6/6.6/6.6/6/;;;;;;;;;;;;;;;;;;;;;;;;;;;;;;;;;;;;;;;;;;;;;;:^!;;;;;;;;;;;",
";;;;;;;;;;[@^;;;;;;;;;26 6 6 6 6 6 6 6 6 6 6 6 6 6 6 6 6 6 6 6 6 6 6/;;;;;;;;;;;;;;;;;;;;;;;;;;;;;;;;;;;;;;;;;;;;;[=^1;;;;;;;;;;",
";;;;;;;;;;}^1;;;;;;;;;|/6 6.6 6/6 6.6 6/6 6.6 6/6 6.6 6/6 6.6 6/6 6.6,1111;;;;;;;;;;;;;;;;;;;;;;;;;;;;;;;;;;;;;;;;;%==;;;;;;;;;;",
";;;;;;;;;4^>;;;;[;;;;~ 6 / 6 / 6 / 6 / 6 / 6 / 6 / 6 / 6 / 6 / 6 / 6 /*@^^^==4];[;;;;;;;[;;;;;;;[;;;;;;;[;;;;;;;[;;;=^4;;;;;;;;;",
";;;;;;;;;^=1;;;;;;;;;/6.6/6.6/6.6/6.6/6.6/6.6/6.6/6.6/6.6/6.6/6.6/6.6/#^=^=^=^=^:4;;;;;;;;;;;;;;;;;;;;;;;;;;;;;;;;;;;@=1;;;;;;;;",
";;;;;;;;=@4;;;;;;;;;56 6 6 6 6 6 6 6 6 6 6 6 6 6 6 6 6 6 6 6 6 6 6 6 6 $^@^@^@^^^@^=4;;;;;;;;;;;;;;;;;;;;;;;;;;;;;;;;!^>;;;;;;;;",
";;;;;;;1=@;;;;;;;;;;6 6.6.6/6 6.6.6/6 6.6.6/6 6.6.6/6 6.6.6/6 6.6.6/6 6'=^=^=^=^=^=^=^!1;;;;;;;;;;;;;;;;;;;;;;;;;;;;;;}^1;;;;;;;",
";;;;;;;=^1;;[;;;;;;2 / 6 6 6 / 6 6 6 / 6 6 6 / 6 6 6 / 6 6 6 / 6 6 6 / /*^^@^^^@^^^@^^^@=;;;[;;;;;;;[;;;;;;;[;;;;;;;[;4@=;;;;;;;",
";;;;;;1^};;;;;;;;;;-6/6.6/6.6/6.6/6.6/6.6/6.6/6.6/6.6/6.6/6.6/6.6/6.6/6.7^=^=^=^=^=^=^=^=^!;;;;;;;;;;;;;;;;;;;;;;;;;;;;==1;;;;;;",
";;;;;;=@4;;;;;;;;;26 6 6 6 6 6 6 6 6 6 6 6 6 6 6 6 6 6 6 6 6 6 6 6 6 6 6+@^^^@^@^@^^^@^@^@^=[;;;;;;;;;;;;;;;;;;;;;;;;;;1^=;;;;;;",
";;;;;1==;;;;;;;;;;2.6 6/6 6.6 6/6 6.6 6/6 6.6 6/6 6.6 6/6 6.6 6/6 6.6 6/6^=^=^=^@^=^=^=^@^=^=4;;;;;;;;;;;;;;;;;;;;;;;;;;=^1;;;;;",
";;;;;>^1[;;;;;;;[;-6 / 6 / 6 / 6 / 6 / 6 / 6 / 6 / 6 / 6 / 6 / 6 / 6 / 6 )^@^^^@^^^@^^^@^^^@^^=;[;;;;;;;[;;;;;;;[;;;;;;;4^=;;;;;",
";;;;;^=;;;;;;;;;;;|.6/6.6/6.6/6.6/6.6/6.6/6.6/6.6/6.6/6.6/6.6/6.6/6.6/6.6'=^=^=^=^=^=^=^=^=^=^=@;;;;;;;;;;;;;;;;;;;;;;;;;==1;;;;",
";;;;4@4;;;;;;;;;;;.6 6 6 6 6 6 6 6 6 6 6 6 6 6 6 6 6 6 6 6 6 6 6 6 6 6 6 #^@^@^^^@^@^@^^^@^@^@^^^1;;;;;;;;;;;;;;;;;;;;;;;!^!;;;;",
";;;;=^;;;;;;;;;;;26/6 6.6.6/6 6.6.6/6 6.6.6/6 6.6.6/6 6.6.6/6 6.6.6/6 6.6/=^=^=^=^=^=^=^=^=^=^=^=^1;;;;;;;;;;;;;;;;;;;;;;1==;;;;",
";;;1^=;;;;;;[;;;;2 6 / 6 6 6 / 6 6 6 / 6 6 6 / 6 6 6 / 6 6 6 / 6 6 6 / 6 /^@^^^@^^^@^^^@^^^@^^^@^^^1[;;;;;;;[;;;;;;;[;;;;;=@4;;;",
";;;>=%;;;;;;;;;;;26.6/6.6/6.6/6.6/6.6/6.6/6.6/6.6/6.6/6.6/6.6/6.6/6.6/6.6/=^=^=^=^=^=^=^=^=^=^=^=^=^1;;;;;;;;;;;;;;;;;;;;;1^!;;;",
";;1=^;;;;;;;;;;;;2 6 6 6 6 6 6 6 6 6 6 6 6 6 6 6 6 6 6 6 6 6 6 6 6 6 6 6 6^^^@^@^@^^^@^@^@^^^@^@^@^^^1;;;;;;;;;;;;;;;;;;;;[@^;;;",
";;1^!;;;;;;;;;;;;26.6 6/6 6.6 6/6 6.6 6/6 6.6 6/6 6.6 6/6 6.6 6/6 6.6 6/6.=^=^=^@^=^=^=^@^=^=^=^@^=^=@;;;;;;;;;;;;;;;;;;;;;==1;;",
";;4@4;;;[;;;;;;;[2 6 / 6 / 6 / 6 / 6 / 6 / 6 / 6 / 6 / 6 / 6 / 6 / 6 / 6 /^@^^^@^^^@^^^@^^^@^^^@^^^@^^=;[;;;;;;;[;;;;;;;[;;1^4;;",
";;}^;;;;;;;;;;;;;26.6/6.6/6.6/6.6/6.6/6.6/6.6/6.6/6.6/6.6/6.6/6.6/6.6/6.6/=^=^=^=^=^=^=^=^=^=^=^=^=^=^=4;;;;;;;;;;;;;;;;;;;1==;;",
";;^=;;;;;;;;;;;;;; 6 6 6 6 6 6 6 6 6 6 6 6 6 6 6 6 6 6 6 6 6 6 6 6 6 6 6 #^@^@^^^@^@^@^^^@^@^@^^^@^@^@^@1;;;;;;;;;;;;;;;;;;;@@[;",
";[=4;;;;;;;;;;;;;;|/6 6.6.6/6 6.6.6/6 6.6.6/6 6.6.6/6 6.6.6/6 6.6.6/6 6.6'=^=^=^=^=^=^=^=^=^=^=^=^=^=^=^=;;;;;;;;;;;;;;;;;;;!^1;",
";!^1[;;;;;;;[;;;;;-6 / 6 6 6 / 6 6 6 / 6 6 6 / 6 6 6 / 6 6 6 / 6 6 6 / 6 {^@^^^@^^^@^^^@^^^@^^^@^^^@^^^@^!;;[;;;;;;;[;;;;;;;4^4;",
";==1;;;;;;;;;;;;;;~.6/6.6/6.6/6.6/6.6/6.6/6.6/6.6/6.6/6.6/6.6/6.6/6.6/6.6)=^=^=^=^=^=^=^=^=^=^=^=^=^=^=^=@;;;;;;;;;;;;;;;;;;;^:;",
";=^;;;;;;;;;;;;;;;[6 6 6 6 6 6 6 6 6 6 6 6 6 6 6 6 6 6 6 6 6 6 6 6 6 6 6.@^^^@^@^@^^^@^@^@^^^@^@^@^^^@^@^@=;;;;;;;;;;;;;;;;;;=^;",
";^};;;;;;;;;;;;;;;;/6 6/6 6.6 6/6 6.6 6/6 6.6 6/6 6.6 6/6 6.6 6/6 6.6 6/'^=^=^=^@^=^=^=^@^=^=^=^@^=^=^=^@^=1;;;;;;;;;;;;;;;;;==1",
"4^=;;;;;[;;;;;;;[;;~ / 6 / 6 / 6 / 6 / 6 / 6 / 6 / 6 / 6 / 6 / 6 / 6 / 6)^^@^^^@^^^@^^^@^^^@^^^@^^^@^^^@^^^!;;;;[;;;;;;;[;;;;4^1",
"1^%;;;;;;;;;;;;;;;;26/6.6/6.6/6.6/6.6/6.6/6.6/6.6/6.6/6.6/6.6/6.6/6.6/6/=^=^=^=^=^=^=^=^=^=^=^=^=^=^=^=^=^=^;;;;;;;;;;;;;;;;;4=4",
"4@4;;;;;;;;;;;;;;;;;#6 6 6 6 6 6 6 6 6 6 6 6 6 6 6 6 6 6 6 6 6 6 6 6 6 {^@^@^@^^^@^@^@^^^@^@^@^^^@^@^@^^^@^@4;;;;;;;;;;;;;;;;1^!",
"!^_;;;;;;;;;;;;;;;;;2 6.6.6/6 6.6.6/6 6.6.6/6 6.6.6/6 6.6.6/6 6.6.6/6 6^=^=^=^=^=^=^=^=^=^=^=^=^=^=^=^=^=^=^=;;;;;;;;;;;;;;;;1=>",
"=^[;[;;;;;;;[;;;;;;;[| 6 6 6 / 6 6 6 / 6 6 6 / 6 6 6 / 6 6 6 / 6 6 6 /(@^^^@^^^@^^^@^^^@^^^@^^^@^^^@^^^@^^^@^_;;;;;;[;;;;;;;[1^=",
"}^;;;;;;;;;;;;;;;;;;;26.6/6.6/6.6/6.6/6.6/6.6/6.6/6.6/6.6/6.6/6.6/6.6/=^=^=^=^=^=^=^=^=^=^=^=^=^=^=^=^=^=^=^=!;;;;;;;;;;;;;;;;==",
"^@_;;;;;;;;;;;;;;;;;;;,6 6 6 6 6 6 6 6 6 6 6 6 6 6 6 6 6 6 6 6 6 6 6 $^@^@^^^@^@^@^^^@^@^@^^^@^@^@^^^@^@^@^^^>;;;;;;;;;;;;;;;;^=",
"=^;;;;;;;;;;;;;;;;;;;;;|6 6.6 6/6 6.6 6/6 6.6 6/6 6.6 6/6 6.6 6/6 6.{^=^@^=^=^=^@^=^=^=^@^=^=^=^@^=^=^=^@^=^=^;;;;;;;;;;;;;;;;=@",
"^@;;;;;;[;;;;;;;[;;;;;;;// 6 / 6 / 6 / 6 / 6 / 6 / 6 / 6 / 6 / 6 / #^^^@^^^@^^^@^^^@^^^@^^^@^^^@^^^@^^^@^^^@^^[;[;;;;;;;[;;;;;^=",
"}=;;;;;;;;;;;;;;;;;;;;;;;/6.6/6.6/6.6/6.6/6.6/6.6/6.6/6.6/6.6/6.6/#^=^=^=^=^=^=^=^=^=^=^=^=^=^=^=^=^=^=^=^=^=^%;;;;;;;;;;;;;;;=^",
"^=;;;;;;;;;;;;;;;;;;;;;;;2 6 6 6 6 6 6 6 6 6 6 6 6 6 6 6 6 6 6 6 /*@^@^^^@^@^@^^^@^@^@^^^@^@^@^^^@^@^@^^^@^@^@=;;;;;;;;;;;;;;;^@",
"=^;;;;;;;;;;;;;;;;;;;;;;;;2/6 6.6.6/6 6.6.6/6 6.6.6/6 6.6.6/6 6.#^=^=^=^=^=^=^=^=^=^=^=^=^=^=^=^=^=^=^=^=^=^=^};;;;;;;;;;;;;;;=^",
"^@;;[;;;;;;;[;;;;;;;[;;;;;[$./ 6 6 6 / 6 6 6 / 6 6 6 / 6 6 6 / #*^^@^^^@^^^@^^^@^^^@^^^@^^^@^^^@^^^@^^^@^^^@^^^;;;;;[;;;;;;;[;^=",
"}^;;;;;;;;;;;;;;;;;;;;;;;;1^='6.6/6.6/6.6/6.6/6.6/6.6/6.6/6.6/{^=^=^=^=^=^=^=^=^=^=^=^=^=^=^=^=^=^=^=^=^=^=^=^=1;;;;;;;;;;;;;;=@",
"=@[;;;;;;;;;;;;;;;;;;;;;;;4^^@(/ 6 6 6 6 6 6 6 6 6 6 6 6 6 6.$^@^@^^^@^@^@^^^@^@^@^^^@^@^@^^^@^@^@^^^@^@^@^^^@^1;;;;;;;;;;;;;;^=",
":^;;;;;;;;;;;;;;;;;;;;;;;;!^=^=^'.6.6 6/6 6.6 6/6 6.6 6/6 6)=^=^@^=^=^=^@^=^=^=^@^=^=^=^@^=^=^=^@^=^=^=^@^=^=^=1;;;;;;;;;;;;;1==",
"=^[;;;;;[;;;;;;;[;;;;;;;[;=@^^^@^$'/ / 6 / 6 / 6 / 6 / 6+{^@^^^@^^^@^^^@^^^@^^^@^^^@^^^@^^^@^^^@^^^@^^^@^^^@^^^1[;;;;;;;[;;;;1^4",
"%^1;;;;;;;;;;;;;;;;;;;;;;;!^=^=^=^=^7'6.6/6.6/6.6/6.6/')=^=^=^=^=^=^=^=^=^=^=^=^=^=^=^=^=^=^=^=^=^=^=^=^=^=^=^=[;;;;;;;;;;;;;1=4",
"4@4;;;;;;;;;;;;;;;;;;;;;;;=@^@^^^@^@^@^)('+/././.#'{*@^^^@^@^@^^^@^@^@^^^@^@^@^^^@^@^@^^^@^@^@^^^@^@^@^^^@^@^@^1;;;;;;;;;;;;;!^1",
"1^!;;;;;;;;;;;;;;;;;;;;;;;!^=^=^=^=^=^=^=^=^=^=^=^=^=^=^=^=^=^=^=^=^=^=^=^=^=^=^=^=^=^=^=^=^=^=^=^=^=^=^=^=^=^=1;;;;;;;;;;;;;==1",
"[^=;[;;;;;;;[;;;;;;;[;;;;;>@^^^@^^^@^^^@^^^@^^^@^^^@^^^@^^^@^^^@^^^@^^^@^^^@^^^@^^^@^^^@^^^@^^^@^^^@^^^@^^^@^^^1;;;;[;;;;;;;[=^;",
";@=;;;;;;;;;;;;;;;;;;;;;;;!^=^=^=^=^=^=^=^=^=^=^=^=^=^=^=^=^=^=^=^=^=^=^=^=^=^=^=^=^=^=^=^=^=^=^=^=^=^=^=^=^=^=1;;;;;;;;;;;;;^=;",
";=^1;;;;;;;;;;;;;;;;;;;;;;4^^@^@^@^^^@^@^@^^^@^@^@^^^@^@^@^^^@^@^@^^^@^@^@^^^@^@^@^^^@^@^@^^^@^@^@^^^@^@^@^^^@^;;;;;;;;;;;;;1@=;",
";4=4;;;;;;;;;;;;;;;;;;;;;;1^=^=^@^=^=^=^@^=^=^=^@^=^=^=^@^=^=^=^@^=^=^=^@^=^=^=^@^=^=^=^@^=^=^=^@^=^=^=^@^=^=^=;;;;;;;;;;;;;1^!;",
";1^!;;;;[;;;;;;;[;;;;;;;[;[@^^^@^^^@^^^@^^^@^^^@^^^@^^^@^^^@^^^@^^^@^^^@^^^@^^^@^^^@^^^@^^^@^^^@^^^@^^^@^^^@^^@;[;;;;;;;[;;;=^4;",
";;==;;;;;;;;;;;;;;;;;;;;;;;^=^=^=^=^=^=^=^=^=^=^=^=^=^=^=^=^=^=^=^=^=^=^=^=^=^=^=^=^=^=^=^=^=^=^=^=^=^=^=^=^=^!;;;;;;;;;;;;;}^;;",
";;@@1;;;;;;;;;;;;;;;;;;;;;;=^@^^^@^@^@^^^@^@^@^^^@^@^@^^^@^@^@^^^@^@^@^^^@^@^@^^^@^@^@^^^@^@^@^^^@^@^@^^^@^@^@4;;;;;;;;;;;;;^=;;",
";;!^1;;;;;;;;;;;;;;;;;;;;;;4=^=^=^=^=^=^=^=^=^=^=^=^=^=^=^=^=^=^=^=^=^=^=^=^=^=^=^=^=^=^=^=^=^=^=^=^=^=^=^=^=^1;;;;;;;;;;;;4=4;;",
";;[@=;;;;;;;[;;;;;;;[;;;;;;1^^^@^^^@^^^@^^^@^^^@^^^@^^^@^^^@^^^@^^^@^^^@^^^@^^^@^^^@^^^@^^^@^^^@^^^@^^^@^^^@^^1;;;;;[;;;;;;>^1;;",
";;;^};;;;;;;;;;;;;;;;;;;;;;1=^=^=^=^=^=^=^=^=^=^=^=^=^=^=^=^=^=^=^=^=^=^=^=^=^=^=^=^=^=^=^=^=^=^=^=^=^=^=^=^==;;;;;;;;;;;;;^};;;",
";;;4^1;;;;;;;;;;;;;;;;;;;;;;=@^@^@^^^@^@^@^^^@^@^@^^^@^@^@^^^@^@^@^^^@^@^@^^^@^@^@^^^@^@^@^^^@^@^@^^^@^@^@^^^!;;;;;;;;;;;;4^=;;;",
";;;1==;;;;;;;;;;;;;;;;;;;;;;%^=^@^=^=^=^@^=^=^=^@^=^=^=^@^=^=^=^@^=^=^=^@^=^=^=^@^=^=^=^@^=^=^=^@^=^=^=^@^=^=1;;;;;;;;;;;;!^1;;;",
";;;;^^1;[;;;;;;;[;;;;;;;[;;;[^^@^^^@^^^@^^^@^^^@^^^@^^^@^^^@^^^@^^^@^^^@^^^@^^^@^^^@^^^@^^^@^^^@^^^@^^^@^^^@^;;;[;;;;;;;[1^=1;;;",
";;;;%^!;;;;;;;;;;;;;;;;;;;;;;==^=^=^=^=^=^=^=^=^=^=^=^=^=^=^=^=^=^=^=^=^=^=^=^=^=^=^=^=^=^=^=^=^=^=^=^=^=^=^1;;;;;;;;;;;;4=4;;;;",
";;;;1@^;;;;;;;;;;;;;;;;;;;;;;1^^^@^@^@^^^@^@^@^^^@^@^@^^^@^@^@^^^@^@^@^^^@^@^@^^^@^@^@^^^@^@^@^^^@^@^@^^^@^@1;;;;;;;;;;;;=^;;;;;",
";;;;;==%;;;;;;;;;;;;;;;;;;;;;;}^=^=^=^=^=^=^=^=^=^=^=^=^=^=^=^=^=^=^=^=^=^=^=^=^=^=^=^=^=^=^=^=^=^=^=^=^=^=4;;;;;;;;;;;;1^!;;;;;",
";;;;;1^=;;;;[;;;;;;;[;;;;;;;[;4@^^^@^^^@^^^@^^^@^^^@^^^@^^^@^^^@^^^@^^^@^^^@^^^@^^^@^^^@^^^@^^^@^^^@^^^@^^^;[;;;;;;;[;;;@^[;;;;;",
";;;;;;}^1;;;;;;;;;;;;;;;;;;;;;;@=^=^=^=^=^=^=^=^=^=^=^=^=^=^=^=^=^=^=^=^=^=^=^=^=^=^=^=^=^=^=^=^=^=^=^=^=^!;;;;;;;;;;;;1==;;;;;;",
";;;;;;]@=;;;;;;;;;;;;;;;;;;;;;;%^@^^^@^@^@^^^@^@^@^^^@^@^@^^^@^@^@^^^@^@^@^^^@^@^@^^^@^@^@^^^@^@^@^^^@^@^=[;;;;;;;;;;;;=^1;;;;;;",
";;;;;;;=@4;;;;;;;;;;;;;;;;;;;;;;=^=^=^=^@^=^=^=^@^=^=^=^@^=^=^=^@^=^=^=^@^=^=^=^@^=^=^=^@^=^=^=^@^=^=^=^@4;;;;;;;;;;;;1^=;;;;;;;",
";;;;;;;1^=1;;;;;[;;;;;;;[;;;;;;;]^^@^^^@^^^@^^^@^^^@^^^@^^^@^^^@^^^@^^^@^^^@^^^@^^^@^^^@^^^@^^^@^^^@^^^@^;;;;;;;[;;;;;^@[;;;;;;;",
";;;;;;;;!^1;;;;;;;;;;;;;;;;;;;;;;4=^=^=^=^=^=^=^=^=^=^=^=^=^=^=^=^=^=^=^=^=^=^=^=^=^=^=^=^=^=^=^=^=^=^=^1;;;;;;;;;;;;4==;;;;;;;;",
";;;;;;;;1=^;;;;;;;;;;;;;;;;;;;;;;;^@^@^^^@^@^@^^^@^@^@^^^@^@^@^^^@^@^@^^^@^@^@^^^@^@^@^^^@^@^@^^^@^@^@^4;;;;;;;;;;;;1=^;;;;;;;;;",
";;;;;;;;;4==;;;;;;;;;;;;;;;;;;;;;;;^=^=^=^=^=^=^=^=^=^=^=^=^=^=^=^=^=^=^=^=^=^=^=^=^=^=^=^=^=^=^=^=^=^};;;;;;;;;;;;;!^%;;;;;;;;;",
";;;;;;;;;;@@4;;;;;;;[;;;;;;;[;;;;;;%^^^@^^^@^^^@^^^@^^^@^^^@^^^@^^^@^^^@^^^@^^^@^^^@^^^@^^^@^^^@^^^@^@[;;;;;[;;;;;;1^=;;;;;;;;;;",
";;;;;;;;;;1^}_;;;;;;;;;;;;;;;;;;;;;;!^=^=^=^=^=^=^=^=^=^=^=^=^=^=^=^=^=^=^=^=^=^=^=^=^=^=^=^=^=^=^=^=1;;;;;;;;;;;;;^}1;;;;;;;;;;",
";;;;;;;;;;;!^=;;;;;;;;;;;;;;;;;;;;;;;>^@^@^^^@^@^@^^^@^@^@^^^@^@^@^^^@^@^@^^^@^@^@^^^@^@^@^^^@^@^@^^4;;;;;;;;;;;;;=^4;;;;;;;;;;;",
";;;;;;;;;;;;=^%;;;;;;;;;;;;;;;;;;;;;;;:^@^=^=^=^@^=^=^=^@^=^=^=^@^=^=^=^@^=^=^=^@^=^=^=^@^=^=^=^@^=4;;;;;;;;;;;;;4==;;;;;;;;;;;;",
";;;;;;;;;;;;[@^1[;;;;;;;[;;;;;;;[;;;;;1=^^^@^^^@^^^@^^^@^^^@^^^@^^^@^^^@^^^@^^^@^^^@^^^@^^^@^^^@^^4;;;;;[;;;;;;;4^^;;;;;;;;;;;;;",
";;;;;;;;;;;;;1=^;;;;;;;;;;;;;;;;;;;;;;;;!^=^=^=^=^=^=^=^=^=^=^=^=^=^=^=^=^=^=^=^=^=^=^=^=^=^=^=^=!;;;;;;;;;;;;;1}^1;;;;;;;;;;;;;",
";;;;;;;;;;;;;;4^@;;;;;;;;;;;;;;;;;;;;;;;;!^@^@^^^@^@^@^^^@^@^@^^^@^@^@^^^@^@^@^^^@^@^@^^^@^@^@^@4;;;;;;;;;;;;;[=^!;;;;;;;;;;;;;;",
";;;;;;;;;;;;;;;===;;;;;;;;;;;;;;;;;;;;;;;;1^=^=^=^=^=^=^=^=^=^=^=^=^=^=^=^=^=^=^=^=^=^=^=^=^=^}1;;;;;;;;;;;;;;:^!;;;;;;;;;;;;;;;",
";;;;;;;;;;;;;;;;=^=;[;;;;;;;[;;;;;;;[;;;;;;1^^^@^^^@^^^@^^^@^^^@^^^@^^^@^^^@^^^@^^^@^^^@^^^@^=1;;;;;[;;;;;;;[=^=1;;;;;;;;;;;;;;;",
";;;;;;;;;;;;;;;;;===;;;;;;;;;;;;;;;;;;;;;;;;;4=^=^=^=^=^=^=^=^=^=^=^=^=^=^=^=^=^=^=^=^=^=^=^1;;;;;;;;;;;;;;;!^};;;;;;;;;;;;;;;;;",
";;;;;;;;;;;;;;;;;;^^=;;;;;;;;;;;;;;;;;;;;;;;;;[=^@^^^@^@^@^^^@^@^@^^^@^@^@^^^@^@^@^^^@^@^@=;;;;;;;;;;;;;;;1>^=[;;;;;;;;;;;;;;;;;",
";;;;;;;;;;;;;;;;;;;===;;;;;;;;;;;;;;;;;;;;;;;;;;1@=^=^=^@^=^=^=^@^=^=^=^@^=^=^=^@^=^=^=^=[;;;;;;;;;;;;;;;;!^=1;;;;;;;;;;;;;;;;;;",
";;;;;;;;;;;;;;;;;;;;@^=;[;;;;;;;[;;;;;;;[;;;;;;;[;4=^^^@^^^@^^^@^^^@^^^@^^^@^^^@^^^@^^=1[;;;;;;;[;;;;;;;[=^=[;;;;;;;;;;;;;;;;;;;",
";;;;;;;;;;;;;;;;;;;;;===;;;;;;;;;;;;;;;;;;;;;;;;;;;;1==^=^=^=^=^=^=^=^=^=^=^=^=^=^=^!1;;;;;;;;;;;;;;;;;1}^:;;;;;;;;;;;;;;;;;;;;;",
";;;;;;;;;;;;;;;;;;;;;;=^^1;;;;;;;;;;;;;;;;;;;;;;;;;;;;[!==^@^@^^^@^@^@^^^@^@^@^^^!4;;;;;;;;;;;;;;;;;;;4=^!1;;;;;;;;;;;;;;;;;;;;;",
";;;;;;;;;;;;;;;;;;;;;;;4=^%;;;;;;;;;;;;;;;;;;;;;;;;;;;;;;;14:^=^=^=^=^=^=^=^==11;;;;;;;;;;;;;;;;;;;;;4=^!;;;;;;;;;;;;;;;;;;;;;;;",
";;;;;;;;;;;;;;;;;;;;;;;;4@^=[;;;;;;;[;;;;;;;[;;;;;;;[;;;;;;;[;114!4!=44!41[;[;;;;;;;[;;;;;;;[;;;;;;;=^^1;;;;;;;;;;;;;;;;;;;;;;;;",
";;;;;;;;;;;;;;;;;;;;;;;;;1}^}1;;;;;;;;;;;;;;;;;;;;;;;;;;;;;;;;;;;;;;;;;;;;;;;;;;;;;;;;;;;;;;;;;;;;1^==;;;;;;;;;;;;;;;;;;;;;;;;;;",
";;;;;;;;;;;;;;;;;;;;;;;;;;1!^@=;;;;;;;;;;;;;;;;;;;;;;;;;;;;;;;;;;;;;;;;;;;;;;;;;;;;;;;;;;;;;;;;;1>^@4;;;;;;;;;;;;;;;;;;;;;;;;;;;",
";;;;;;;;;;;;;;;;;;;;;;;;;;;;1==^!;;;;;;;;;;;;;;;;;;;;;;;;;;;;;;;;;;;;;;;;;;;;;;;;;;;;;;;;;;;;;;4=^}1;;;;;;;;;;;;;;;;;;;;;;;;;;;;",
";;;;;;;;;;;;;;;;;;;;;;;;;;;;;;4@^=4;;;;;[;;;;;;;[;;;;;;;[;;;;;;;[;;;;;;;[;;;;;;;[;;;;;;;[;;;11^@^4;;;;;;;;;;;;;;;;;;;;;;;;;;;;;;",
";;;;;;;;;;;;;;;;;;;;;;;;;;;;;;;1!^==1;;;;;;;;;;;;;;;;;;;;;;;;;;;;;;;;;;;;;;;;;;;;;;;;;;;;;;1}^==;;;;;;;;;;;;;;;;;;;;;;;;;;;;;;;;",
";;;;;;;;;;;;;;;;;;;;;;;;;;;;;;;;;1=@^=4;;;;;;;;;;;;;;;;;;;;;;;;;;;;;;;;;;;;;;;;;;;;;;;;;;1@@^=[;;;;;;;;;;;;;;;;;;;;;;;;;;;;;;;;;",
";;;;;;;;;;;;;;;;;;;;;;;;;;;;;;;;;;;1=^=@!1;;;;;;;;;;;;;;;;;;;;;;;;;;;;;;;;;;;;;;;;;;;;;4=^==1;;;;;;;;;;;;;;;;;;;;;;;;;;;;;;;;;;;",
";;;;;;;;;;;;;;;;;;;;;;;;;;;;;;;;;;;;;1=@^^=1[;;;;;;;[;;;;;;;[;;;;;;;[;;;;;;;[;;;;;;;4=^@^>[;;;;;;;;;;;;;;;;;;;;;;;;;;;;;;;;;;;;;",
";;;;;;;;;;;;;;;;;;;;;;;;;;;;;;;;;;;;;;;1%==^}=11;;;;;;;;;;;;;;;;;;;;;;;;;;;;;;;;;!!^=^=4;;;;;;;;;;;;;;;;;;;;;;;;;;;;;;;;;;;;;;;;",
";;;;;;;;;;;;;;;;;;;;;;;;;;;;;;;;;;;;;;;;;;[4^@^@@!41;;;;;;;;;;;;;;;;;;;;;;;;11==^@^==1;;;;;;;;;;;;;;;;;;;;;;;;;;;;;;;;;;;;;;;;;;",
";;;;;;;;;;;;;;;;;;;;;;;;;;;;;;;;;;;;;;;;;;;;;1!=@^=^==!41[;;;;;;;;;;;11%!=}^=^=^=41;;;;;;;;;;;;;;;;;;;;;;;;;;;;;;;;;;;;;;;;;;;;;",
";;;;;;;;;;;;;;;;;;;;;;;;;;;;;;;;;;;;;;;;;;;;;;;;[14=^^^@^^^@^@^=^@^@^^^@^^^==44;;;;;;;;;;;;;;;;;;;;;;;;;;;;;;;;;;;;;;;;;;;;;;;;;",
";;;;;;;;;;;;;;;;;;;;;;;;;;;;;;;;;;;;;;;;;;;;;;;;;;;;;114%>!=}@=^}@=@}=!411;;;;;;;;;;;;;;;;;;;;;;;;;;;;;;;;;;;;;;;;;;;;;;;;;;;;;;",
};